<svg xmlns="http://www.w3.org/2000/svg" xmlns:xlink="http://www.w3.org/1999/xlink" width="500" zoomAndPan="magnify" viewBox="0 0 375 374.999991" height="500" preserveAspectRatio="xMidYMid meet" version="1.0"><defs><g/><clipPath id="d8bf57264b"><path d="M 278 187 L 284 187 L 284 220 L 278 220 Z M 278 187 " clip-rule="nonzero"/></clipPath><clipPath id="8494585153"><path d="M 150.035156 24.875 L 375.257812 210.605469 L 225.269531 392.484375 L 0.046875 206.753906 Z M 150.035156 24.875 " clip-rule="nonzero"/></clipPath><clipPath id="b300232a61"><path d="M 150.035156 24.875 L 375.257812 210.605469 L 225.269531 392.484375 L 0.046875 206.753906 Z M 150.035156 24.875 " clip-rule="nonzero"/></clipPath><clipPath id="034747f9f1"><path d="M 34 178 L 304 178 L 304 209 L 34 209 Z M 34 178 " clip-rule="nonzero"/></clipPath><clipPath id="44d9863ec3"><path d="M 150.035156 24.875 L 375.257812 210.605469 L 225.269531 392.484375 L 0.046875 206.753906 Z M 150.035156 24.875 " clip-rule="nonzero"/></clipPath><clipPath id="7556313ec4"><path d="M 150.035156 24.875 L 375.257812 210.605469 L 225.269531 392.484375 L 0.046875 206.753906 Z M 150.035156 24.875 " clip-rule="nonzero"/></clipPath><clipPath id="cc9b512b49"><path d="M 48 73 L 329 73 L 329 309 L 48 309 Z M 48 73 " clip-rule="nonzero"/></clipPath><clipPath id="1af69784e7"><path d="M 150.035156 24.875 L 375.257812 210.605469 L 225.269531 392.484375 L 0.046875 206.753906 Z M 150.035156 24.875 " clip-rule="nonzero"/></clipPath><clipPath id="e67ccd3e18"><path d="M 150.035156 24.875 L 375.257812 210.605469 L 225.269531 392.484375 L 0.046875 206.753906 Z M 150.035156 24.875 " clip-rule="nonzero"/></clipPath></defs><g clip-path="url(#d8bf57264b)"><g clip-path="url(#8494585153)"><g clip-path="url(#b300232a61)"><path fill="#ffffff" d="M 279.253906 219.824219 C 279.042969 219.648438 278.9375 219.363281 279.007812 219.078125 C 281.515625 208.972656 282.648438 198.546875 282.382812 188.097656 C 282.371094 187.691406 282.691406 187.355469 283.097656 187.34375 C 283.5 187.335938 283.839844 187.65625 283.847656 188.0625 C 284.117188 198.640625 282.96875 209.199219 280.433594 219.433594 C 280.335938 219.828125 279.9375 220.066406 279.542969 219.96875 C 279.433594 219.941406 279.335938 219.890625 279.253906 219.824219 " fill-opacity="1" fill-rule="nonzero"/></g></g></g><g clip-path="url(#034747f9f1)"><g clip-path="url(#44d9863ec3)"><g clip-path="url(#7556313ec4)"><path fill="#ffffff" d="M 285.941406 185.5625 C 280.371094 186.09375 275.78125 185.71875 275.683594 184.726562 C 275.589844 183.734375 280.023438 182.5 285.59375 181.96875 L 288.535156 181.691406 C 294.105469 181.160156 298.695312 181.53125 298.792969 182.523438 C 298.890625 183.515625 294.453125 184.75 288.886719 185.28125 Z M 293.640625 187.433594 C 296.46875 187.113281 304.074219 186.21875 303.667969 182.027344 C 303.320312 178.421875 296.40625 178.527344 293.703125 178.726562 C 289.582031 179.027344 285.464844 179.335938 281.347656 179.636719 C 279.769531 179.753906 274.121094 180.425781 272.546875 180.582031 C 270.785156 180.757812 170.71875 191.828125 99.671875 199.542969 C 52.925781 204.617188 34.460938 208.027344 34.460938 208.027344 C 34.460938 208.027344 58.558594 207.378906 100.515625 204 C 171.738281 198.257812 271.609375 189.53125 273.328125 189.375 C 273.578125 189.351562 278.597656 188.875 278.84375 188.851562 C 283.773438 188.382812 288.71875 187.996094 293.640625 187.433594 " fill-opacity="1" fill-rule="nonzero"/></g></g></g><g clip-path="url(#cc9b512b49)"><g clip-path="url(#1af69784e7)"><g clip-path="url(#e67ccd3e18)"><path fill="#ffffff" d="M 296.722656 260.628906 C 296.25 260.242188 295.640625 260.03125 294.917969 260.007812 C 293.367188 259.964844 290.476562 263.480469 289.851562 267.902344 C 289.585938 269.808594 289.652344 272.613281 291.558594 274.996094 C 292.859375 273.890625 293.828125 272.886719 294.421875 272.066406 C 298.023438 267.097656 298.296875 263.292969 297.433594 261.546875 C 297.25 261.175781 297.011719 260.871094 296.722656 260.628906 Z M 244.589844 214.0625 C 240.582031 210.757812 236.457031 209.152344 233 208.402344 C 222.578125 206.144531 212.335938 210.328125 206.808594 215.476562 C 200.484375 221.363281 197.03125 230.398438 197.5625 239.644531 C 198.089844 248.746094 202.582031 262.453125 221.007812 276.066406 C 225.578125 279.445312 230.304688 282.097656 235.164062 284.019531 C 244.445312 275.90625 265.515625 253.921875 255.078125 228.949219 C 252.148438 221.941406 248.421875 217.222656 244.589844 214.0625 Z M 91.089844 281.707031 C 40.917969 240.332031 33.710938 165.914062 75.023438 115.816406 C 116.339844 65.714844 190.769531 58.617188 240.941406 99.992188 C 266.507812 121.078125 282.109375 152.152344 283.742188 185.246094 C 283.746094 185.300781 283.75 185.738281 283.75 185.738281 L 282.3125 185.796875 C 282.3125 185.796875 282.28125 185.371094 282.277344 185.316406 C 280.664062 152.632812 265.257812 121.949219 240.007812 101.125 C 190.460938 60.265625 116.957031 67.273438 76.15625 116.75 C 35.359375 166.222656 42.476562 239.714844 92.023438 280.574219 C 131.578125 313.191406 186.863281 316.332031 229.597656 288.378906 L 231.128906 287.304688 C 231.363281 287.136719 232.402344 286.359375 233.953125 285.058594 C 229.175781 283.117188 224.550781 280.507812 220.132812 277.246094 C 201.25 263.292969 196.640625 249.144531 196.097656 239.726562 C 195.539062 230.050781 199.167969 220.585938 205.808594 214.402344 C 212.894531 207.800781 223.6875 204.882812 233.308594 206.96875 C 240.417969 208.507812 250.199219 213.472656 256.429688 228.382812 C 261.519531 240.5625 259.988281 253.476562 251.878906 266.761719 C 247.007812 274.746094 240.953125 280.878906 236.742188 284.613281 C 245.320312 287.703125 254.3125 288.542969 263.621094 287.109375 C 275.363281 285.300781 285.023438 280.121094 290.421875 275.917969 C 288.074219 272.980469 288.140625 269.527344 288.402344 267.695312 C 289.074219 262.910156 292.261719 258.464844 294.960938 258.542969 C 296.679688 258.589844 298.023438 259.429688 298.75 260.898438 C 300.164062 263.769531 298.992188 268.265625 295.613281 272.929688 C 294.980469 273.796875 293.949219 274.871094 292.566406 276.046875 C 293.800781 277.144531 295.558594 278.101562 298.011719 278.734375 C 306.921875 281.046875 314.199219 277.511719 317.746094 275.203125 C 322.589844 272.042969 326.253906 267.40625 326.863281 263.660156 C 326.925781 263.261719 327.304688 262.992188 327.707031 263.054688 C 328.105469 263.121094 328.378906 263.5 328.3125 263.898438 C 327.632812 268.089844 323.800781 273.007812 318.546875 276.433594 C 314.800781 278.875 307.101562 282.605469 297.644531 280.15625 C 294.816406 279.421875 292.8125 278.289062 291.410156 276.980469 C 285.8125 281.351562 275.871094 286.707031 263.84375 288.558594 C 254.167969 290.050781 244.59375 289.054688 235.527344 285.671875 C 233.832031 287.117188 232.5625 288.074219 231.984375 288.496094 L 230.421875 289.59375 C 209.539062 303.253906 185.296875 309.816406 160.300781 308.589844 C 134.832031 307.339844 110.898438 298.042969 91.089844 281.707031 " fill-opacity="1" fill-rule="nonzero"/></g></g></g><g fill="#8c52ff" fill-opacity="1"><g transform="translate(112.943597, 118.850496)"><g><path d="M 1.6875 -12.875 L -0.703125 -11.421875 L 4.5625 -2.78125 L 2.65625 -1.625 L -2.609375 -10.265625 L -5 -8.796875 L -6.03125 -10.484375 L 0.65625 -14.5625 Z M 1.6875 -12.875 "/></g></g></g><g fill="#8c52ff" fill-opacity="1"><g transform="translate(126.744835, 111.083179)"><g><path d="M 5.03125 -14.8125 L 9.296875 -3.5 L 7.1875 -2.71875 L 5.375 -7.53125 L 1.640625 -6.109375 L 3.453125 -1.296875 L 1.359375 -0.515625 L -2.90625 -11.828125 L -0.8125 -12.609375 L 0.96875 -7.890625 L 4.703125 -9.3125 L 2.921875 -14.03125 Z M 5.03125 -14.8125 "/></g></g></g><g fill="#8c52ff" fill-opacity="1"><g transform="translate(144.532367, 105.213868)"><g><path d="M 6.671875 -1.109375 L 2.890625 -4.921875 L 3.609375 -0.609375 L 1.4375 -0.234375 L -0.5625 -12.15625 L 2.765625 -12.71875 C 5.585938 -13.1875 7.210938 -12.15625 7.640625 -9.625 C 7.734375 -9.0625 7.734375 -8.488281 7.640625 -7.90625 C 7.546875 -7.332031 7.328125 -6.800781 6.984375 -6.3125 C 6.648438 -5.820312 6.171875 -5.445312 5.546875 -5.1875 L 9.328125 -1.5625 Z M 3.609375 -6.140625 C 4.085938 -6.222656 4.476562 -6.410156 4.78125 -6.703125 C 5.09375 -6.992188 5.304688 -7.347656 5.421875 -7.765625 C 5.535156 -8.179688 5.554688 -8.613281 5.484375 -9.0625 C 5.347656 -9.851562 5.066406 -10.398438 4.640625 -10.703125 C 4.222656 -11.015625 3.597656 -11.101562 2.765625 -10.96875 L 1.90625 -10.828125 L 2.703125 -6 Z M 3.609375 -6.140625 "/></g></g></g><g fill="#8c52ff" fill-opacity="1"><g transform="translate(161.809266, 103.058634)"><g><path d="M 8.09375 -1.828125 L 8.0625 0.125 L 1.40625 0.015625 L 1.59375 -12.078125 L 7.90625 -11.96875 L 7.875 -10.078125 L 3.734375 -10.140625 L 3.6875 -7.3125 L 6.984375 -7.265625 L 6.96875 -5.421875 L 3.671875 -5.46875 L 3.609375 -1.890625 Z M 8.09375 -1.828125 "/></g></g></g><g fill="#8c52ff" fill-opacity="1"><g transform="translate(177.975945, 103.932761)"><g><path d="M 7.296875 -0.34375 L 3.078125 -1.171875 L 2.09375 0.421875 L -0.296875 -0.0625 L 7.125 -11.125 L 7.296875 -11.09375 L 9.9375 1.96875 L 7.609375 1.515625 Z M 7 -2.125 L 6.40625 -5.59375 L 6.296875 -6.609375 L 5.828125 -5.71875 L 4.015625 -2.71875 Z M 7 -2.125 "/></g></g></g><g fill="#8c52ff" fill-opacity="1"><g transform="translate(194.707223, 107.936377)"><g><path d="M 8.75 -9.5 C 10.382812 -8.832031 11.445312 -7.859375 11.9375 -6.578125 C 12.4375 -5.304688 12.320312 -3.769531 11.59375 -1.96875 C 11.113281 -0.800781 10.503906 0.128906 9.765625 0.828125 C 9.023438 1.523438 8.179688 1.953125 7.234375 2.109375 C 6.285156 2.273438 5.269531 2.140625 4.1875 1.703125 L 1.296875 0.53125 L 5.84375 -10.671875 Z M 4.84375 -0.09375 C 5.582031 0.207031 6.253906 0.269531 6.859375 0.09375 C 7.460938 -0.0820312 7.976562 -0.425781 8.40625 -0.9375 C 8.84375 -1.445312 9.207031 -2.054688 9.5 -2.765625 C 9.957031 -3.898438 10.09375 -4.929688 9.90625 -5.859375 C 9.726562 -6.796875 9.097656 -7.484375 8.015625 -7.921875 L 7.265625 -8.21875 L 4.09375 -0.390625 Z M 4.84375 -0.09375 "/></g></g></g><g fill="#8c52ff" fill-opacity="1"><g transform="translate(211.017399, 115.407649)"><g><path d="M 7.15625 2.28125 L 6.140625 3.890625 L 1.234375 0.78125 L 7.703125 -9.4375 L 9.5625 -8.265625 L 4.109375 0.34375 Z M 7.15625 2.28125 "/></g></g></g><g fill="#8c52ff" fill-opacity="1"><g transform="translate(223.552307, 124.133655)"><g><path d="M 8.984375 -8.21875 L 10.65625 -6.765625 L 2.734375 2.375 L 1.0625 0.921875 Z M 8.984375 -8.21875 "/></g></g></g><g fill="#8c52ff" fill-opacity="1"><g transform="translate(232.758597, 132.607261)"><g><path d="M 15.703125 0.078125 L 6.15625 7.890625 L 6.046875 7.765625 L 7.484375 -0.90625 L 7.6875 -1.765625 L 6.4375 -0.625 L 2.28125 2.78125 L 0.921875 1.125 L 10.4375 -6.671875 L 10.5625 -6.53125 L 9.015625 2.109375 L 8.796875 3.09375 L 10.015625 1.96875 L 14.34375 -1.5625 Z M 15.703125 0.078125 "/></g></g></g><g fill="#8c52ff" fill-opacity="1"><g transform="translate(244.061627, 147.604299)"><g><path d="M 10.515625 6.015625 C 9.910156 6.410156 9.425781 6.703125 9.0625 6.890625 C 7.707031 7.609375 6.457031 7.890625 5.3125 7.734375 C 4.175781 7.578125 3.203125 6.726562 2.390625 5.1875 C 1.929688 4.320312 1.75 3.429688 1.84375 2.515625 C 1.945312 1.609375 2.328125 0.734375 2.984375 -0.109375 C 3.640625 -0.953125 4.554688 -1.6875 5.734375 -2.3125 C 6.785156 -2.863281 7.828125 -3.15625 8.859375 -3.1875 C 9.898438 -3.21875 10.84375 -2.992188 11.6875 -2.515625 C 12.53125 -2.046875 13.195312 -1.359375 13.6875 -0.453125 C 14.007812 0.179688 14.226562 0.726562 14.34375 1.1875 C 14.46875 1.644531 14.523438 2.019531 14.515625 2.3125 C 14.503906 2.613281 14.457031 2.894531 14.375 3.15625 L 12.21875 3.21875 C 12.5625 2.5 12.445312 1.601562 11.875 0.53125 C 11.613281 0.03125 11.222656 -0.34375 10.703125 -0.59375 C 10.179688 -0.851562 9.585938 -0.957031 8.921875 -0.90625 C 8.253906 -0.851562 7.570312 -0.644531 6.875 -0.28125 C 6.039062 0.164062 5.367188 0.648438 4.859375 1.171875 C 4.359375 1.703125 4.046875 2.234375 3.921875 2.765625 C 3.796875 3.304688 3.863281 3.816406 4.125 4.296875 C 4.53125 5.078125 5.003906 5.539062 5.546875 5.6875 C 6.085938 5.832031 6.722656 5.710938 7.453125 5.328125 C 7.535156 5.285156 7.675781 5.207031 7.875 5.09375 L 6.71875 2.90625 L 8.40625 2.015625 Z M 10.515625 6.015625 "/></g></g></g></svg>